<svg xmlns="http://www.w3.org/2000/svg" xmlns:xlink="http://www.w3.org/1999/xlink" preserveAspectRatio="xMidYMid" width="48" height="144" viewBox="0 0 48 144">
  <defs>
    <style>
      .cls-1 {
        fill: #fff;
        fill-rule: evenodd;
      }
    </style>
  </defs>
  <path d="M44.628,106.503 C43.510,108.177 42.090,109.649 40.453,110.822 L40.480,111.905 C40.480,122.947 32.076,135.679 16.708,135.679 C11.988,135.679 7.599,134.295 3.900,131.925 C4.554,132.000 5.219,132.040 5.894,132.040 C9.807,132.040 13.411,130.705 16.270,128.465 C12.615,128.396 9.530,125.980 8.466,122.661 C8.978,122.758 9.500,122.812 10.040,122.812 C10.803,122.812 11.541,122.708 12.241,122.519 C8.420,121.748 5.540,118.373 5.540,114.325 L5.540,114.220 C6.667,114.847 7.954,115.223 9.324,115.269 C7.084,113.773 5.608,111.215 5.608,108.315 C5.608,106.783 6.018,105.347 6.738,104.116 C10.859,109.170 17.015,112.498 23.959,112.846 C23.817,112.235 23.742,111.597 23.742,110.943 C23.742,106.330 27.483,102.588 32.098,102.588 C34.502,102.588 36.672,103.601 38.196,105.228 C40.100,104.851 41.889,104.157 43.505,103.199 C42.878,105.146 41.556,106.785 39.831,107.819 C41.521,107.618 43.129,107.167 44.628,106.503 ZM25.197,23.864 L33.426,23.864 L31.418,30.609 L25.197,30.609 L25.197,53.287 L15.773,53.287 C15.773,53.287 15.810,41.334 15.840,30.609 L10.555,30.609 L10.555,23.864 L15.854,23.864 C15.865,20.168 15.872,17.079 15.872,15.381 C15.872,7.481 23.597,7.514 23.597,7.514 L32.823,7.514 L32.823,15.893 C32.823,15.893 30.417,15.893 27.404,15.893 C24.738,15.893 25.197,19.778 25.197,19.778 L25.197,23.864 Z" class="cls-1"/>
</svg>
