<svg xmlns="http://www.w3.org/2000/svg" xmlns:xlink="http://www.w3.org/1999/xlink" preserveAspectRatio="xMidYMid" width="36.906" height="30" viewBox="0 0 36.906 30">
  <defs>
    <style>
      .cls-1 {
        fill: #fff;
        fill-rule: evenodd;
      }
    </style>
  </defs>
  <path d="M35.893,0.565 C34.429,1.433 32.807,2.063 31.081,2.404 C29.699,0.929 27.733,0.011 25.554,0.011 C21.370,0.011 17.979,3.403 17.979,7.584 C17.979,8.177 18.046,8.756 18.175,9.309 C11.881,8.994 6.300,5.978 2.564,1.395 C1.912,2.512 1.540,3.813 1.540,5.203 C1.540,7.831 2.878,10.150 4.908,11.506 C3.667,11.465 2.500,11.123 1.478,10.555 L1.478,10.650 C1.478,14.320 4.089,17.380 7.552,18.078 C6.918,18.250 6.249,18.344 5.557,18.344 C5.068,18.344 4.595,18.295 4.131,18.207 C5.095,21.215 7.892,23.405 11.205,23.468 C8.614,25.499 5.346,26.709 1.799,26.709 C1.187,26.709 0.585,26.673 -0.008,26.605 C3.345,28.753 7.324,30.008 11.602,30.008 C25.534,30.008 33.151,18.466 33.151,8.456 L33.127,7.475 C34.611,6.411 35.898,5.077 36.912,3.560 C35.553,4.161 34.095,4.570 32.563,4.753 C34.127,3.816 35.326,2.330 35.893,0.565 Z" class="cls-1"/>
</svg>
